<mxfile host="app.diagrams.net" modified="2021-08-31T10:43:10.581Z" agent="5.0 (Windows)" etag="oT7iQRG2_r6QA4gPR979" version="15.0.3" type="github">
  <diagram id="9mXvaVSuT-yr561JVfZQ" name="Page-1">
    <mxGraphModel dx="2272" dy="762" grid="1" gridSize="10" guides="1" tooltips="1" connect="1" arrows="1" fold="1" page="1" pageScale="1" pageWidth="850" pageHeight="1100" math="0" shadow="0">
      <root>
        <mxCell id="0" />
        <mxCell id="1" parent="0" />
        <mxCell id="rVlFmZ7Iy4KIFGHd2SEh-2" value="Message Interaction" style="swimlane;fontStyle=1;align=center;verticalAlign=top;childLayout=stackLayout;horizontal=1;startSize=26;horizontalStack=0;resizeParent=1;resizeParentMax=0;resizeLast=0;collapsible=1;marginBottom=0;" parent="1" vertex="1">
          <mxGeometry x="160" y="810" width="160" height="34" as="geometry" />
        </mxCell>
        <mxCell id="rVlFmZ7Iy4KIFGHd2SEh-4" value="" style="line;strokeWidth=1;fillColor=none;align=left;verticalAlign=middle;spacingTop=-1;spacingLeft=3;spacingRight=3;rotatable=0;labelPosition=right;points=[];portConstraint=eastwest;" parent="rVlFmZ7Iy4KIFGHd2SEh-2" vertex="1">
          <mxGeometry y="26" width="160" height="8" as="geometry" />
        </mxCell>
        <mxCell id="rVlFmZ7Iy4KIFGHd2SEh-6" value="Phone Interaction" style="swimlane;fontStyle=1;align=center;verticalAlign=top;childLayout=stackLayout;horizontal=1;startSize=26;horizontalStack=0;resizeParent=1;resizeParentMax=0;resizeLast=0;collapsible=1;marginBottom=0;" parent="1" vertex="1">
          <mxGeometry x="-60" y="800" width="160" height="34" as="geometry" />
        </mxCell>
        <mxCell id="rVlFmZ7Iy4KIFGHd2SEh-8" value="" style="line;strokeWidth=1;fillColor=none;align=left;verticalAlign=middle;spacingTop=-1;spacingLeft=3;spacingRight=3;rotatable=0;labelPosition=right;points=[];portConstraint=eastwest;" parent="rVlFmZ7Iy4KIFGHd2SEh-6" vertex="1">
          <mxGeometry y="26" width="160" height="8" as="geometry" />
        </mxCell>
        <mxCell id="rVlFmZ7Iy4KIFGHd2SEh-12" value="Agent" style="swimlane;fontStyle=1;align=center;verticalAlign=top;childLayout=stackLayout;horizontal=1;startSize=26;horizontalStack=0;resizeParent=1;resizeParentMax=0;resizeLast=0;collapsible=1;marginBottom=0;" parent="1" vertex="1">
          <mxGeometry x="810" y="830" width="160" height="86" as="geometry" />
        </mxCell>
        <mxCell id="rVlFmZ7Iy4KIFGHd2SEh-13" value="- supervisor: Supervisor" style="text;strokeColor=none;fillColor=none;align=left;verticalAlign=top;spacingLeft=4;spacingRight=4;overflow=hidden;rotatable=0;points=[[0,0.5],[1,0.5]];portConstraint=eastwest;" parent="rVlFmZ7Iy4KIFGHd2SEh-12" vertex="1">
          <mxGeometry y="26" width="160" height="26" as="geometry" />
        </mxCell>
        <mxCell id="rVlFmZ7Iy4KIFGHd2SEh-14" value="" style="line;strokeWidth=1;fillColor=none;align=left;verticalAlign=middle;spacingTop=-1;spacingLeft=3;spacingRight=3;rotatable=0;labelPosition=right;points=[];portConstraint=eastwest;" parent="rVlFmZ7Iy4KIFGHd2SEh-12" vertex="1">
          <mxGeometry y="52" width="160" height="8" as="geometry" />
        </mxCell>
        <mxCell id="rVlFmZ7Iy4KIFGHd2SEh-15" value="+ getSupervisor(): Supervi" style="text;strokeColor=none;fillColor=none;align=left;verticalAlign=top;spacingLeft=4;spacingRight=4;overflow=hidden;rotatable=0;points=[[0,0.5],[1,0.5]];portConstraint=eastwest;" parent="rVlFmZ7Iy4KIFGHd2SEh-12" vertex="1">
          <mxGeometry y="60" width="160" height="26" as="geometry" />
        </mxCell>
        <mxCell id="bqos2zg2RV2krhV23c68-33" style="edgeStyle=orthogonalEdgeStyle;rounded=0;orthogonalLoop=1;jettySize=auto;html=1;exitX=0.5;exitY=0;exitDx=0;exitDy=0;startArrow=none;startFill=0;endArrow=block;endFill=0;" edge="1" parent="1" source="rVlFmZ7Iy4KIFGHd2SEh-16" target="rVlFmZ7Iy4KIFGHd2SEh-28">
          <mxGeometry relative="1" as="geometry" />
        </mxCell>
        <mxCell id="rVlFmZ7Iy4KIFGHd2SEh-16" value="Supervisor" style="swimlane;fontStyle=1;align=center;verticalAlign=top;childLayout=stackLayout;horizontal=1;startSize=26;horizontalStack=0;resizeParent=1;resizeParentMax=0;resizeLast=0;collapsible=1;marginBottom=0;" parent="1" vertex="1">
          <mxGeometry x="1000" y="890" width="180" height="146" as="geometry" />
        </mxCell>
        <mxCell id="rVlFmZ7Iy4KIFGHd2SEh-17" value="- manager: Manager" style="text;strokeColor=none;fillColor=none;align=left;verticalAlign=top;spacingLeft=4;spacingRight=4;overflow=hidden;rotatable=0;points=[[0,0.5],[1,0.5]];portConstraint=eastwest;" parent="rVlFmZ7Iy4KIFGHd2SEh-16" vertex="1">
          <mxGeometry y="26" width="180" height="26" as="geometry" />
        </mxCell>
        <mxCell id="bqos2zg2RV2krhV23c68-34" value="- agents: Array&lt;Agent&gt;" style="text;strokeColor=none;fillColor=none;align=left;verticalAlign=top;spacingLeft=4;spacingRight=4;overflow=hidden;rotatable=0;points=[[0,0.5],[1,0.5]];portConstraint=eastwest;" vertex="1" parent="rVlFmZ7Iy4KIFGHd2SEh-16">
          <mxGeometry y="52" width="180" height="26" as="geometry" />
        </mxCell>
        <mxCell id="rVlFmZ7Iy4KIFGHd2SEh-18" value="" style="line;strokeWidth=1;fillColor=none;align=left;verticalAlign=middle;spacingTop=-1;spacingLeft=3;spacingRight=3;rotatable=0;labelPosition=right;points=[];portConstraint=eastwest;" parent="rVlFmZ7Iy4KIFGHd2SEh-16" vertex="1">
          <mxGeometry y="78" width="180" height="8" as="geometry" />
        </mxCell>
        <mxCell id="rVlFmZ7Iy4KIFGHd2SEh-19" value="+ getManager(type): Manager" style="text;strokeColor=none;fillColor=none;align=left;verticalAlign=top;spacingLeft=4;spacingRight=4;overflow=hidden;rotatable=0;points=[[0,0.5],[1,0.5]];portConstraint=eastwest;" parent="rVlFmZ7Iy4KIFGHd2SEh-16" vertex="1">
          <mxGeometry y="86" width="180" height="26" as="geometry" />
        </mxCell>
        <mxCell id="bqos2zg2RV2krhV23c68-35" value="+ getSubAgents(type): Agent" style="text;strokeColor=none;fillColor=none;align=left;verticalAlign=top;spacingLeft=4;spacingRight=4;overflow=hidden;rotatable=0;points=[[0,0.5],[1,0.5]];portConstraint=eastwest;" vertex="1" parent="rVlFmZ7Iy4KIFGHd2SEh-16">
          <mxGeometry y="112" width="180" height="34" as="geometry" />
        </mxCell>
        <mxCell id="rVlFmZ7Iy4KIFGHd2SEh-20" value="Manager" style="swimlane;fontStyle=1;align=center;verticalAlign=top;childLayout=stackLayout;horizontal=1;startSize=26;horizontalStack=0;resizeParent=1;resizeParentMax=0;resizeLast=0;collapsible=1;marginBottom=0;" parent="1" vertex="1">
          <mxGeometry x="1220" y="860" width="260" height="112" as="geometry" />
        </mxCell>
        <mxCell id="bqos2zg2RV2krhV23c68-36" value="- supervisors: Array&lt;Supervisor&gt;" style="text;strokeColor=none;fillColor=none;align=left;verticalAlign=top;spacingLeft=4;spacingRight=4;overflow=hidden;rotatable=0;points=[[0,0.5],[1,0.5]];portConstraint=eastwest;" vertex="1" parent="rVlFmZ7Iy4KIFGHd2SEh-20">
          <mxGeometry y="26" width="260" height="26" as="geometry" />
        </mxCell>
        <mxCell id="rVlFmZ7Iy4KIFGHd2SEh-22" value="" style="line;strokeWidth=1;fillColor=none;align=left;verticalAlign=middle;spacingTop=-1;spacingLeft=3;spacingRight=3;rotatable=0;labelPosition=right;points=[];portConstraint=eastwest;" parent="rVlFmZ7Iy4KIFGHd2SEh-20" vertex="1">
          <mxGeometry y="52" width="260" height="8" as="geometry" />
        </mxCell>
        <mxCell id="rVlFmZ7Iy4KIFGHd2SEh-23" value="+ getSupervisors(type): Array&lt;Supervisor&gt;" style="text;strokeColor=none;fillColor=none;align=left;verticalAlign=top;spacingLeft=4;spacingRight=4;overflow=hidden;rotatable=0;points=[[0,0.5],[1,0.5]];portConstraint=eastwest;" parent="rVlFmZ7Iy4KIFGHd2SEh-20" vertex="1">
          <mxGeometry y="60" width="260" height="26" as="geometry" />
        </mxCell>
        <mxCell id="bqos2zg2RV2krhV23c68-37" value="+ getAllSubAgents(type): Array&lt;BaseAgent&gt;" style="text;strokeColor=none;fillColor=none;align=left;verticalAlign=top;spacingLeft=4;spacingRight=4;overflow=hidden;rotatable=0;points=[[0,0.5],[1,0.5]];portConstraint=eastwest;" vertex="1" parent="rVlFmZ7Iy4KIFGHd2SEh-20">
          <mxGeometry y="86" width="260" height="26" as="geometry" />
        </mxCell>
        <mxCell id="bqos2zg2RV2krhV23c68-4" style="edgeStyle=orthogonalEdgeStyle;rounded=0;orthogonalLoop=1;jettySize=auto;html=1;exitX=0.25;exitY=1;exitDx=0;exitDy=0;endArrow=none;endFill=0;startArrow=block;startFill=0;" edge="1" parent="1" source="rVlFmZ7Iy4KIFGHd2SEh-28" target="rVlFmZ7Iy4KIFGHd2SEh-12">
          <mxGeometry relative="1" as="geometry" />
        </mxCell>
        <mxCell id="bqos2zg2RV2krhV23c68-6" style="edgeStyle=orthogonalEdgeStyle;rounded=0;orthogonalLoop=1;jettySize=auto;html=1;exitX=0.75;exitY=1;exitDx=0;exitDy=0;endArrow=none;endFill=0;startArrow=block;startFill=0;" edge="1" parent="1" source="rVlFmZ7Iy4KIFGHd2SEh-28" target="rVlFmZ7Iy4KIFGHd2SEh-20">
          <mxGeometry relative="1" as="geometry" />
        </mxCell>
        <mxCell id="bqos2zg2RV2krhV23c68-31" style="edgeStyle=orthogonalEdgeStyle;rounded=0;orthogonalLoop=1;jettySize=auto;html=1;exitX=0.5;exitY=0;exitDx=0;exitDy=0;entryX=1;entryY=0.5;entryDx=0;entryDy=0;startArrow=classic;startFill=1;endArrow=none;endFill=0;" edge="1" parent="1" source="rVlFmZ7Iy4KIFGHd2SEh-28" target="bqos2zg2RV2krhV23c68-9">
          <mxGeometry relative="1" as="geometry" />
        </mxCell>
        <mxCell id="rVlFmZ7Iy4KIFGHd2SEh-28" value="«interface» BaseAgent" style="swimlane;fontStyle=1;align=center;verticalAlign=top;childLayout=stackLayout;horizontal=1;startSize=26;horizontalStack=0;resizeParent=1;resizeParentMax=0;resizeLast=0;collapsible=1;marginBottom=0;" parent="1" vertex="1">
          <mxGeometry x="930" y="630" width="370" height="138" as="geometry" />
        </mxCell>
        <mxCell id="rVlFmZ7Iy4KIFGHd2SEh-29" value="- activeInteractions: Array&lt;Interaction&gt;" style="text;strokeColor=none;fillColor=none;align=left;verticalAlign=top;spacingLeft=4;spacingRight=4;overflow=hidden;rotatable=0;points=[[0,0.5],[1,0.5]];portConstraint=eastwest;" parent="rVlFmZ7Iy4KIFGHd2SEh-28" vertex="1">
          <mxGeometry y="26" width="370" height="26" as="geometry" />
        </mxCell>
        <mxCell id="rVlFmZ7Iy4KIFGHd2SEh-30" value="" style="line;strokeWidth=1;fillColor=none;align=left;verticalAlign=middle;spacingTop=-1;spacingLeft=3;spacingRight=3;rotatable=0;labelPosition=right;points=[];portConstraint=eastwest;" parent="rVlFmZ7Iy4KIFGHd2SEh-28" vertex="1">
          <mxGeometry y="52" width="370" height="8" as="geometry" />
        </mxCell>
        <mxCell id="rVlFmZ7Iy4KIFGHd2SEh-31" value="+ resolveInteraction(Interaction interaction): Observable&lt;bool&gt;" style="text;strokeColor=none;fillColor=none;align=left;verticalAlign=top;spacingLeft=4;spacingRight=4;overflow=hidden;rotatable=0;points=[[0,0.5],[1,0.5]];portConstraint=eastwest;" parent="rVlFmZ7Iy4KIFGHd2SEh-28" vertex="1">
          <mxGeometry y="60" width="370" height="26" as="geometry" />
        </mxCell>
        <mxCell id="bqos2zg2RV2krhV23c68-32" value="+ isBusy(): Observable&lt;bool&gt;" style="text;strokeColor=none;fillColor=none;align=left;verticalAlign=top;spacingLeft=4;spacingRight=4;overflow=hidden;rotatable=0;points=[[0,0.5],[1,0.5]];portConstraint=eastwest;" vertex="1" parent="rVlFmZ7Iy4KIFGHd2SEh-28">
          <mxGeometry y="86" width="370" height="26" as="geometry" />
        </mxCell>
        <mxCell id="rVlFmZ7Iy4KIFGHd2SEh-32" value="+ availableSlots&lt;T of Interaction&gt;(): Observable&lt;int&gt;" style="text;strokeColor=none;fillColor=none;align=left;verticalAlign=top;spacingLeft=4;spacingRight=4;overflow=hidden;rotatable=0;points=[[0,0.5],[1,0.5]];portConstraint=eastwest;" parent="rVlFmZ7Iy4KIFGHd2SEh-28" vertex="1">
          <mxGeometry y="112" width="370" height="26" as="geometry" />
        </mxCell>
        <mxCell id="bqos2zg2RV2krhV23c68-1" style="edgeStyle=orthogonalEdgeStyle;rounded=0;orthogonalLoop=1;jettySize=auto;html=1;exitX=0.25;exitY=1;exitDx=0;exitDy=0;endArrow=block;endFill=0;" edge="1" parent="1" source="rVlFmZ7Iy4KIFGHd2SEh-40" target="rVlFmZ7Iy4KIFGHd2SEh-6">
          <mxGeometry relative="1" as="geometry" />
        </mxCell>
        <mxCell id="bqos2zg2RV2krhV23c68-2" style="edgeStyle=orthogonalEdgeStyle;rounded=0;orthogonalLoop=1;jettySize=auto;html=1;exitX=0.75;exitY=1;exitDx=0;exitDy=0;entryX=0.5;entryY=0;entryDx=0;entryDy=0;endArrow=block;endFill=0;" edge="1" parent="1" source="rVlFmZ7Iy4KIFGHd2SEh-40" target="rVlFmZ7Iy4KIFGHd2SEh-2">
          <mxGeometry relative="1" as="geometry" />
        </mxCell>
        <mxCell id="bqos2zg2RV2krhV23c68-30" style="edgeStyle=orthogonalEdgeStyle;rounded=0;orthogonalLoop=1;jettySize=auto;html=1;exitX=0.5;exitY=0;exitDx=0;exitDy=0;entryX=0;entryY=0.5;entryDx=0;entryDy=0;startArrow=classic;startFill=1;endArrow=none;endFill=0;" edge="1" parent="1" source="rVlFmZ7Iy4KIFGHd2SEh-40" target="bqos2zg2RV2krhV23c68-17">
          <mxGeometry relative="1" as="geometry" />
        </mxCell>
        <mxCell id="rVlFmZ7Iy4KIFGHd2SEh-40" value="«interface» Interaction" style="swimlane;fontStyle=1;align=center;verticalAlign=top;childLayout=stackLayout;horizontal=1;startSize=26;horizontalStack=0;resizeParent=1;resizeParentMax=0;resizeLast=0;collapsible=1;marginBottom=0;" parent="1" vertex="1">
          <mxGeometry y="650" width="300" height="112" as="geometry" />
        </mxCell>
        <mxCell id="rVlFmZ7Iy4KIFGHd2SEh-41" value="- duration: int" style="text;strokeColor=none;fillColor=none;align=left;verticalAlign=top;spacingLeft=4;spacingRight=4;overflow=hidden;rotatable=0;points=[[0,0.5],[1,0.5]];portConstraint=eastwest;" parent="rVlFmZ7Iy4KIFGHd2SEh-40" vertex="1">
          <mxGeometry y="26" width="300" height="26" as="geometry" />
        </mxCell>
        <mxCell id="rVlFmZ7Iy4KIFGHd2SEh-42" value="" style="line;strokeWidth=1;fillColor=none;align=left;verticalAlign=middle;spacingTop=-1;spacingLeft=3;spacingRight=3;rotatable=0;labelPosition=right;points=[];portConstraint=eastwest;" parent="rVlFmZ7Iy4KIFGHd2SEh-40" vertex="1">
          <mxGeometry y="52" width="300" height="8" as="geometry" />
        </mxCell>
        <mxCell id="rVlFmZ7Iy4KIFGHd2SEh-43" value="+ start(): bool" style="text;strokeColor=none;fillColor=none;align=left;verticalAlign=top;spacingLeft=4;spacingRight=4;overflow=hidden;rotatable=0;points=[[0,0.5],[1,0.5]];portConstraint=eastwest;" parent="rVlFmZ7Iy4KIFGHd2SEh-40" vertex="1">
          <mxGeometry y="60" width="300" height="26" as="geometry" />
        </mxCell>
        <mxCell id="bqos2zg2RV2krhV23c68-28" value="+ hasEnded(): Observable&lt;bool&gt;" style="text;strokeColor=none;fillColor=none;align=left;verticalAlign=top;spacingLeft=4;spacingRight=4;overflow=hidden;rotatable=0;points=[[0,0.5],[1,0.5]];portConstraint=eastwest;" vertex="1" parent="rVlFmZ7Iy4KIFGHd2SEh-40">
          <mxGeometry y="86" width="300" height="26" as="geometry" />
        </mxCell>
        <mxCell id="bqos2zg2RV2krhV23c68-8" value="Contact Center" style="swimlane;fontStyle=1;align=center;verticalAlign=top;childLayout=stackLayout;horizontal=1;startSize=26;horizontalStack=0;resizeParent=1;resizeParentMax=0;resizeLast=0;collapsible=1;marginBottom=0;" vertex="1" parent="1">
          <mxGeometry x="380" y="550" width="400" height="242" as="geometry" />
        </mxCell>
        <mxCell id="bqos2zg2RV2krhV23c68-9" value="+ agents: Array&lt;BaseAgent&gt;" style="text;strokeColor=none;fillColor=none;align=left;verticalAlign=top;spacingLeft=4;spacingRight=4;overflow=hidden;rotatable=0;points=[[0,0.5],[1,0.5]];portConstraint=eastwest;" vertex="1" parent="bqos2zg2RV2krhV23c68-8">
          <mxGeometry y="26" width="400" height="26" as="geometry" />
        </mxCell>
        <mxCell id="bqos2zg2RV2krhV23c68-17" value="- awaitingInteractions: Array&lt;Interaction&gt;" style="text;strokeColor=none;fillColor=none;align=left;verticalAlign=top;spacingLeft=4;spacingRight=4;overflow=hidden;rotatable=0;points=[[0,0.5],[1,0.5]];portConstraint=eastwest;" vertex="1" parent="bqos2zg2RV2krhV23c68-8">
          <mxGeometry y="52" width="400" height="26" as="geometry" />
        </mxCell>
        <mxCell id="bqos2zg2RV2krhV23c68-10" value="" style="line;strokeWidth=1;fillColor=none;align=left;verticalAlign=middle;spacingTop=-1;spacingLeft=3;spacingRight=3;rotatable=0;labelPosition=right;points=[];portConstraint=eastwest;" vertex="1" parent="bqos2zg2RV2krhV23c68-8">
          <mxGeometry y="78" width="400" height="8" as="geometry" />
        </mxCell>
        <mxCell id="bqos2zg2RV2krhV23c68-25" value="+ resolveInteractionsQueue(Array&lt;BaseAgent&gt; agents): bool" style="text;strokeColor=none;fillColor=none;align=left;verticalAlign=top;spacingLeft=4;spacingRight=4;overflow=hidden;rotatable=0;points=[[0,0.5],[1,0.5]];portConstraint=eastwest;" vertex="1" parent="bqos2zg2RV2krhV23c68-8">
          <mxGeometry y="86" width="400" height="26" as="geometry" />
        </mxCell>
        <mxCell id="bqos2zg2RV2krhV23c68-21" value="+ registerNewInteraction(Interaction interaction): bool" style="text;strokeColor=none;fillColor=none;align=left;verticalAlign=top;spacingLeft=4;spacingRight=4;overflow=hidden;rotatable=0;points=[[0,0.5],[1,0.5]];portConstraint=eastwest;" vertex="1" parent="bqos2zg2RV2krhV23c68-8">
          <mxGeometry y="112" width="400" height="26" as="geometry" />
        </mxCell>
        <mxCell id="bqos2zg2RV2krhV23c68-22" value="+ getWaitingQueueCount(): int" style="text;strokeColor=none;fillColor=none;align=left;verticalAlign=top;spacingLeft=4;spacingRight=4;overflow=hidden;rotatable=0;points=[[0,0.5],[1,0.5]];portConstraint=eastwest;" vertex="1" parent="bqos2zg2RV2krhV23c68-8">
          <mxGeometry y="138" width="400" height="26" as="geometry" />
        </mxCell>
        <mxCell id="bqos2zg2RV2krhV23c68-11" value="- assignInteraction(Interaction interaction): bool" style="text;strokeColor=none;fillColor=none;align=left;verticalAlign=top;spacingLeft=4;spacingRight=4;overflow=hidden;rotatable=0;points=[[0,0.5],[1,0.5]];portConstraint=eastwest;" vertex="1" parent="bqos2zg2RV2krhV23c68-8">
          <mxGeometry y="164" width="400" height="26" as="geometry" />
        </mxCell>
        <mxCell id="bqos2zg2RV2krhV23c68-23" value="- getFreeAgents&lt;T of Interaction&gt;(): Array&lt;BaseAgent&gt;" style="text;strokeColor=none;fillColor=none;align=left;verticalAlign=top;spacingLeft=4;spacingRight=4;overflow=hidden;rotatable=0;points=[[0,0.5],[1,0.5]];portConstraint=eastwest;" vertex="1" parent="bqos2zg2RV2krhV23c68-8">
          <mxGeometry y="190" width="400" height="26" as="geometry" />
        </mxCell>
        <mxCell id="bqos2zg2RV2krhV23c68-24" value="- sortAgentsByPriority(Array&lt;BaseAgent&gt; agents): Array&lt;BaseAgents&gt;" style="text;strokeColor=none;fillColor=none;align=left;verticalAlign=top;spacingLeft=4;spacingRight=4;overflow=hidden;rotatable=0;points=[[0,0.5],[1,0.5]];portConstraint=eastwest;" vertex="1" parent="bqos2zg2RV2krhV23c68-8">
          <mxGeometry y="216" width="400" height="26" as="geometry" />
        </mxCell>
      </root>
    </mxGraphModel>
  </diagram>
</mxfile>
